<svg version="1.1" id="Layer_1" xmlns="http://www.w3.org/2000/svg" xmlns:xlink="http://www.w3.org/1999/xlink" x="0px" y="0px"
	 width="100%" viewBox="0 0 542 187" enable-background="new 0 0 542 187" xml:space="preserve">
<path fill="#F7F7F2" opacity="1.000000" stroke="none" 
	d="
M352.000000,188.000000 
	C234.666672,188.000000 117.833336,188.000000 1.000000,188.000000 
	C1.000000,125.666664 1.000000,63.333332 1.000000,1.000000 
	C181.666672,1.000000 362.333344,1.000000 543.000000,1.000000 
	C543.000000,63.333332 543.000000,125.666664 543.000000,188.000000 
	C479.500000,188.000000 416.000000,188.000000 352.000000,188.000000 
M200.697372,152.388077 
	C201.172028,152.278687 201.646667,152.169281 203.038010,152.160431 
	C215.434509,151.829697 227.829437,151.373596 240.228149,151.217361 
	C247.171082,151.129852 254.120270,151.539230 261.925568,151.955704 
	C292.218933,153.863297 322.170929,158.130569 351.830566,164.607285 
	C371.688354,168.943619 391.648376,172.970413 412.130646,172.072052 
	C418.585205,171.788940 424.985596,170.269501 431.410767,169.315918 
	C431.464874,168.683273 431.519012,168.050644 431.573120,167.417999 
	C428.066345,164.495850 424.559601,161.573685 421.205414,158.778687 
	C424.785400,154.443497 428.262756,150.232574 431.740112,146.021652 
	C431.383972,145.611740 431.027802,145.201828 430.671661,144.791916 
	C428.933990,145.119904 427.200836,145.474411 425.457886,145.771423 
	C416.450745,147.306366 407.494354,149.403748 398.422089,150.241837 
	C373.007538,152.589630 347.979523,147.460190 322.770905,145.690643 
	C302.522247,144.269272 282.240234,143.323105 261.055817,141.971573 
	C243.721054,142.035873 226.386292,142.100174 208.123672,142.004868 
	C201.171524,142.624390 194.219360,143.243896 186.749313,143.136978 
	C168.510284,144.478149 150.271271,145.819336 131.256271,147.059296 
	C130.505829,147.242477 129.755386,147.425659 128.180634,147.414352 
	C123.462204,147.988037 118.743782,148.561707 113.270325,148.987946 
	C112.516037,149.104446 111.761742,149.220947 110.149231,149.196243 
	C100.772255,149.828629 91.395287,150.460999 81.192520,150.901566 
	C79.786423,150.955246 78.380325,151.008926 76.220352,150.787643 
	C62.523026,148.961670 48.825695,147.135681 34.889511,145.277863 
	C35.970577,146.758347 37.372757,148.678604 38.880493,151.076111 
	C39.233486,151.391281 39.586475,151.706436 40.118149,152.663971 
	C41.728901,154.144058 43.339653,155.624146 45.107994,157.561920 
	C45.364136,157.967453 45.620274,158.372971 45.238483,159.026489 
	C42.690769,161.195084 40.143051,163.363663 37.587433,165.606735 
	C37.587433,165.606735 37.513271,165.596252 36.925949,165.849777 
	C34.116783,167.902969 35.373383,169.146027 37.890118,169.601883 
	C43.418556,170.603271 48.973003,171.928116 54.550426,172.114197 
	C84.804550,173.123642 113.663406,164.429962 143.665924,159.074295 
	C144.110214,158.984573 144.554489,158.894852 145.829544,158.853287 
	C149.208084,158.206207 152.586609,157.559128 156.772247,157.059143 
	C157.845825,156.897507 158.919418,156.735855 160.811081,156.665466 
	C171.530716,155.391937 182.250336,154.118423 193.744934,152.931320 
	C194.507614,152.813843 195.270294,152.696365 196.880661,152.705063 
	C198.003479,152.522491 199.126282,152.339920 200.697372,152.388077 
M60.051502,33.964550 
	C56.352760,24.053780 48.242302,26.129969 40.346718,26.575083 
	C40.346718,59.375870 40.346718,91.931198 40.346718,124.739685 
	C43.001400,124.950104 45.445675,125.143845 47.810627,126.190407 
	C47.907768,128.261124 48.004910,130.331848 48.121193,132.810608 
	C52.178772,132.810608 55.655949,132.570267 59.084927,132.874008 
	C63.001804,133.220947 64.204765,131.882050 64.154419,127.891541 
	C63.941055,110.977753 64.035812,94.059647 64.102898,77.143448 
	C64.109703,75.427872 64.687172,73.714554 65.494026,72.474426 
	C72.965797,85.335983 80.362267,98.242668 88.007774,111.000114 
	C88.929413,112.537987 91.198746,113.268204 92.970474,115.041885 
	C93.307800,115.614761 93.632668,116.195404 93.984337,116.759346 
	C98.638275,124.222618 105.084412,124.224648 109.473267,116.597481 
	C116.087181,105.103485 122.501762,93.494865 129.087799,81.984596 
	C129.757523,80.814125 131.020355,79.983009 132.110153,79.927689 
	C132.110153,94.882980 132.110153,109.838264 132.110153,124.836189 
	C135.264099,125.020599 137.563385,125.155037 139.854599,126.146240 
	C140.007874,128.230255 140.161148,130.314285 140.344360,132.805313 
	C144.277145,132.805313 147.763153,132.557281 151.198700,132.867706 
	C155.552155,133.261093 156.918945,131.741394 156.889267,127.276649 
	C156.697021,98.343941 156.787308,69.409340 156.785065,40.475361 
	C156.784912,38.520916 156.785049,36.566467 156.785049,34.285416 
	C153.962387,34.108738 151.679382,33.965839 149.218826,33.209206 
	C149.103653,32.803589 148.988464,32.397976 149.094177,31.148275 
	C149.094177,29.707201 149.094177,28.266125 149.094177,26.320135 
	C145.023361,26.320135 141.410095,26.516039 137.829208,26.259661 
	C134.832962,26.045143 133.122086,27.158562 131.885162,30.341230 
	C128.315338,36.648129 124.903839,43.051205 121.143242,49.242229 
	C112.910309,62.795982 104.500298,76.242172 95.946220,88.975761 
	C90.731339,80.356209 85.468376,71.765282 80.315010,63.109116 
	C75.079575,54.315102 70.030647,45.408676 64.683983,36.683887 
	C63.969624,35.518185 61.987766,35.129215 60.051502,33.964550 
M177.965897,124.860435 
	C179.945618,125.031364 181.925339,125.202286 183.989243,126.299835 
	C184.616669,128.564285 182.427292,132.309418 186.662033,132.680664 
	C191.218628,133.080109 195.837357,132.770920 200.609650,132.770920 
	C200.609650,99.576263 200.609650,66.935692 200.609650,33.911392 
	C198.147919,33.911392 196.165695,33.911392 194.019836,33.289284 
	C194.019836,31.043383 194.019836,28.797480 194.019836,26.525040 
	C188.154785,26.525040 183.060715,26.525040 177.410004,26.525040 
	C177.410004,35.906700 177.365494,45.015816 177.420258,54.124336 
	C177.506271,68.428886 177.659210,82.733040 177.498291,97.880775 
	C177.594391,101.923248 177.690475,105.965729 177.495712,110.856071 
	C177.577225,115.294945 177.658737,119.733818 177.965897,124.860435 
M311.825745,109.323166 
	C311.774017,108.899017 311.722321,108.474861 311.852203,107.130478 
	C311.789917,102.737030 311.727600,98.343582 311.817657,93.323006 
	C311.765045,92.899269 311.712463,92.475525 311.841736,91.140221 
	C312.058594,79.592209 312.890869,80.754166 304.867340,80.081871 
	C304.761292,77.810799 304.655273,75.539734 304.533752,72.937149 
	C293.092773,72.937149 282.002441,72.937149 270.127686,73.046288 
	C270.246033,77.444183 270.364380,81.842079 271.265808,86.463921 
	C273.175415,86.537445 275.085022,86.610970 277.240417,87.574890 
	C277.355042,89.521729 277.469696,91.468575 277.625244,94.110275 
	C281.575806,94.110275 285.189423,94.110275 288.967255,95.003304 
	C288.981140,97.820763 289.186432,100.656342 288.922150,103.447456 
	C288.803284,104.703056 288.062744,106.357788 287.067383,107.002548 
	C275.314270,114.615791 254.044403,112.003059 244.164825,101.105263 
	C240.444580,92.689545 239.338715,84.049118 240.825836,74.863312 
	C243.582977,57.832726 260.839844,45.263569 277.902527,47.520374 
	C286.566498,48.666325 294.351013,51.120392 300.735565,56.907032 
	C304.394592,53.265888 307.752106,49.924805 311.921539,45.775738 
	C309.053680,44.054737 306.506622,42.526260 304.184692,40.241089 
	C301.119659,37.077465 298.604980,32.859169 294.898376,30.925121 
	C274.221680,20.136326 238.716522,20.906801 222.351318,50.065983 
	C209.291687,73.335358 215.554703,101.041557 237.969955,119.698586 
	C241.027618,122.413864 243.675842,125.958145 247.211975,127.704643 
	C264.988770,136.484604 283.008209,136.690491 301.019043,128.045288 
	C312.031250,122.759415 312.715485,121.706306 311.825745,109.323166 
M420.501251,48.542198 
	C412.268982,36.577267 401.842865,27.637461 386.925903,25.744535 
	C380.539307,24.934092 373.917267,24.578983 367.547821,25.301109 
	C349.874817,27.304773 336.782318,36.676224 328.903046,52.515907 
	C317.268494,75.904831 324.080170,101.763710 345.864014,119.899727 
	C349.252563,122.757042 352.207855,126.612503 356.102814,128.303101 
	C375.480377,136.713821 394.695862,137.332092 412.947632,124.980225 
	C436.305634,109.172699 439.993988,76.070984 426.359863,54.336124 
	C425.054779,52.255642 422.790619,50.776768 420.501251,48.542198 
M479.786438,84.996773 
	C462.322571,88.870461 456.269684,111.743965 466.890808,125.376480 
	C477.436768,138.912567 504.209106,134.577057 510.689362,118.439964 
	C514.408813,109.177872 512.531799,100.559891 506.269409,93.238403 
	C499.590302,85.429642 490.789337,82.645088 479.786438,84.996773 
M511.054413,64.369530 
	C510.964203,62.713566 511.095459,61.009220 510.746063,59.409866 
	C509.105469,51.899773 501.922607,48.892696 495.943909,53.126411 
	C489.381866,57.773239 488.003540,69.138069 493.302277,74.908081 
	C496.938568,78.867775 502.481964,79.656738 506.000824,75.686958 
	C508.466248,72.905663 509.398621,68.765472 511.054413,64.369530 
M481.275238,72.495506 
	C484.364624,65.846916 482.877899,59.854259 478.442108,54.447132 
	C474.234833,49.318577 467.685059,50.061176 464.631989,55.857208 
	C462.052521,60.754040 462.300049,65.744484 464.157715,70.772438 
	C465.464325,74.308846 467.190277,77.432358 471.448547,78.065880 
	C475.800110,78.713272 478.799225,76.827492 481.275238,72.495506 
M443.199280,84.023727 
	C444.353668,86.384430 445.172546,89.001709 446.737640,91.048302 
	C449.372192,94.493332 453.044098,96.131004 457.316193,94.252037 
	C461.425873,92.444527 462.413269,88.696335 461.915955,84.641212 
	C461.660675,82.559547 460.931061,80.400963 459.889648,78.577667 
	C457.373322,74.172127 452.486938,71.834656 448.590454,73.161674 
	C443.820099,74.786316 442.815948,78.702003 443.199280,84.023727 
M520.184082,73.234985 
	C513.508789,76.981682 510.893707,81.898048 512.028809,88.566795 
	C512.950012,93.978958 518.087219,96.523422 522.903687,93.953117 
	C527.364563,91.572571 530.487366,85.574661 529.847900,80.615517 
	C529.148804,75.193779 526.523926,72.960274 520.184082,73.234985 
z"/>
<path fill="#95273B" opacity="1.000000" stroke="none" 
	d="
M261.973022,142.166077 
	C282.240234,143.323105 302.522247,144.269272 322.770905,145.690643 
	C347.979523,147.460190 373.007538,152.589630 398.422089,150.241837 
	C407.494354,149.403748 416.450745,147.306366 425.457886,145.771423 
	C427.200836,145.474411 428.933990,145.119904 430.671661,144.791916 
	C431.027802,145.201828 431.383972,145.611740 431.740112,146.021652 
	C428.262756,150.232574 424.785400,154.443497 421.205414,158.778687 
	C424.559601,161.573685 428.066345,164.495850 431.573120,167.417999 
	C431.519012,168.050644 431.464874,168.683273 431.410767,169.315918 
	C424.985596,170.269501 418.585205,171.788940 412.130646,172.072052 
	C391.648376,172.970413 371.688354,168.943619 351.830566,164.607285 
	C322.170929,158.130569 292.218933,153.863297 261.736176,151.634125 
	C262.346252,151.056702 263.145752,150.800858 264.210968,150.459961 
	C255.340027,149.957413 246.913895,149.122040 238.484985,149.092880 
	C227.865082,149.056137 217.232193,149.495239 206.627731,150.117615 
	C203.060272,150.326996 199.562561,151.724457 196.032974,152.578888 
	C195.270294,152.696365 194.507614,152.813843 193.038635,152.633453 
	C185.509903,152.742432 178.657242,152.883865 171.876495,153.656448 
	C167.856705,154.114471 163.950363,155.568207 159.992996,156.574219 
	C158.919418,156.735855 157.845825,156.897507 156.086441,156.719849 
	C151.933350,157.188751 148.466064,157.996933 144.998779,158.805130 
	C144.554489,158.894852 144.110214,158.984573 143.056488,158.753052 
	C140.994125,158.443939 139.493103,158.221512 138.096405,158.507874 
	C131.159698,159.930191 124.284454,161.671219 117.323456,162.951492 
	C107.465752,164.764496 97.510391,166.057846 87.672081,167.962372 
	C73.791138,170.649475 59.867970,172.178909 45.837330,169.815002 
	C42.908848,169.321594 40.280128,167.048965 37.513268,165.596252 
	C37.513271,165.596252 37.587433,165.606735 37.957481,165.681976 
	C40.843822,163.430984 43.360119,161.104752 45.876415,158.778503 
	C45.620274,158.372971 45.364136,157.967453 45.013458,156.981262 
	C43.259102,154.940948 41.599285,153.481277 39.939465,152.021591 
	C39.586475,151.706436 39.233486,151.391281 38.932560,150.411865 
	C41.029293,149.178558 43.168423,147.906448 45.101734,148.166199 
	C52.210129,149.121292 59.216038,150.863022 66.330734,151.737137 
	C69.798599,152.163208 73.421501,151.327271 76.974228,151.062592 
	C78.380325,151.008926 79.786423,150.955246 81.915871,151.270737 
	C88.760651,151.741592 94.899040,152.154388 100.996826,151.822128 
	C104.368820,151.638367 107.672806,150.206619 111.007454,149.337448 
	C111.761742,149.220947 112.516037,149.104446 113.959656,149.323090 
	C119.545822,149.756287 124.680794,151.522476 129.004944,147.608826 
	C129.755386,147.425659 130.505829,147.242477 131.962097,147.365570 
	C134.309219,147.776581 135.964371,148.071960 137.589493,147.953934 
	C145.793289,147.358032 153.990219,146.665970 162.187729,145.985535 
	C170.548660,145.291519 178.907471,144.571838 187.267212,143.863403 
	C194.219360,143.243896 201.171524,142.624390 208.907043,142.340881 
	C226.530334,142.771774 243.370209,142.874786 260.210236,142.927628 
	C260.797028,142.929474 261.385406,142.431229 261.973022,142.166077 
z"/>
<path fill="#122233" opacity="1.000000" stroke="none" 
	d="
M96.162628,89.732300 
	C104.500298,76.242172 112.910309,62.795982 121.143242,49.242229 
	C124.903839,43.051205 128.315338,36.648129 132.565582,30.143806 
	C138.270950,28.314331 143.466217,25.358158 147.432297,31.850845 
	C147.583801,32.098873 148.378372,31.954096 148.873276,31.992361 
	C148.988464,32.397976 149.103653,32.803589 149.199249,33.985302 
	C149.179657,64.738586 149.179657,94.715775 149.179657,124.767532 
	C145.465164,124.975616 142.663910,125.132545 139.862671,125.289467 
	C137.563385,125.155037 135.264099,125.020599 132.110153,124.836189 
	C132.110153,109.838264 132.110153,94.882980 132.181152,79.005913 
	C132.252136,72.240097 132.252136,66.396049 132.252136,60.552010 
	C131.714890,60.447498 131.177643,60.342987 130.640396,60.238480 
	C129.110382,63.393196 127.790802,66.672195 126.013832,69.681068 
	C118.433372,82.516655 110.511482,95.155579 103.166473,108.122467 
	C100.691864,112.491135 97.997009,115.097672 92.843445,114.372749 
	C91.198746,113.268204 88.929413,112.537987 88.007774,111.000114 
	C80.362267,98.242668 72.965797,85.335983 65.192398,71.894470 
	C62.564373,67.657959 60.237984,64.001404 57.911594,60.344845 
	C57.551010,60.475834 57.190430,60.606827 56.829845,60.737820 
	C56.829845,81.161484 56.829845,101.585144 56.429653,122.071465 
	C53.412609,122.422173 50.788403,122.656036 48.180504,123.010017 
	C43.385506,123.660858 41.817310,121.677383 41.908527,116.846474 
	C42.178486,102.549545 42.005371,88.244240 42.005302,73.942215 
	C42.005241,60.305397 41.904205,46.666824 42.141064,33.034126 
	C42.168491,31.455458 44.066959,28.575165 45.104996,28.571953 
	C50.490311,28.555294 55.440266,29.700193 58.181309,35.472950 
	C59.237537,37.697422 61.859200,39.178585 64.025589,41.237995 
	C74.238434,58.343712 84.193306,75.209846 94.614204,92.865570 
	C95.488503,91.096413 95.825562,90.414360 96.162628,89.732300 
z"/>
<path fill="#132234" opacity="1.000000" stroke="none" 
	d="
M345.886902,119.212830 
	C324.080170,101.763710 317.268494,75.904831 328.903046,52.515907 
	C336.782318,36.676224 349.874817,27.304773 367.547821,25.301109 
	C373.917267,24.578983 380.539307,24.934092 386.925903,25.744535 
	C401.842865,27.637461 412.268982,36.577267 420.690521,49.152878 
	C425.866974,59.651638 427.735901,70.096443 426.944489,81.146530 
	C425.653534,99.171539 412.426208,118.818291 393.008118,124.286697 
	C383.024200,127.098312 372.973663,127.741364 362.972900,125.429176 
	C357.111786,124.074074 351.571503,121.331352 345.886902,119.212830 
M352.285828,101.649696 
	C353.195496,102.808601 353.893372,104.267838 355.046753,105.081154 
	C371.158539,116.442650 401.181671,113.040977 408.563263,87.288712 
	C410.110352,81.891411 409.093323,75.754204 409.224182,69.957191 
	C409.382721,62.933456 406.785187,57.029385 401.767944,51.417259 
	C391.604187,40.409401 376.714874,36.789391 362.634064,41.902702 
	C350.668427,46.247913 341.458221,59.895390 341.261230,74.502777 
	C341.123779,84.696442 343.301117,94.257736 352.285828,101.649696 
z"/>
<path fill="#132233" opacity="1.000000" stroke="none" 
	d="
M276.994629,86.684494 
	C275.085022,86.610970 273.175415,86.537445 270.875885,85.871948 
	C270.627991,81.165695 270.770050,77.051422 270.912079,72.937149 
	C282.002441,72.937149 293.092773,72.937149 304.533752,72.937149 
	C304.655273,75.539734 304.761292,77.810799 304.867859,80.972229 
	C304.844604,91.344162 304.921051,100.828003 304.706665,110.305252 
	C304.666992,112.057846 303.933838,114.361015 302.682343,115.404335 
	C299.910370,117.715172 296.793579,119.823128 293.487274,121.247414 
	C274.680695,129.348801 256.126373,128.866409 238.000565,118.998901 
	C215.554703,101.041557 209.291687,73.335358 222.351318,50.065983 
	C238.716522,20.906801 274.221680,20.136326 294.898376,30.925121 
	C298.604980,32.859169 301.119659,37.077465 303.732666,40.650223 
	C300.278168,43.628399 297.275696,46.197441 294.082275,48.929863 
	C292.235657,47.761559 289.672546,45.902412 286.903564,44.430527 
	C276.656403,38.983528 265.996582,38.356087 254.984436,41.891090 
	C238.152786,47.294212 230.655930,68.857910 234.655563,84.376808 
	C236.340302,90.913681 238.446320,97.389389 244.089676,101.868813 
	C254.044403,112.003059 275.314270,114.615791 287.067383,107.002548 
	C288.062744,106.357788 288.803284,104.703056 288.922150,103.447456 
	C289.186432,100.656342 288.981140,97.820763 288.986145,94.116150 
	C289.005035,91.147247 289.005035,89.065498 289.005035,86.684494 
	C284.685150,86.684494 280.839905,86.684494 276.994629,86.684494 
z"/>
<path fill="#4BB7AF" opacity="1.000000" stroke="none" 
	d="
M480.191772,84.915314 
	C490.789337,82.645088 499.590302,85.429642 506.269409,93.238403 
	C512.531799,100.559891 514.408813,109.177872 510.689362,118.439964 
	C504.209106,134.577057 477.436768,138.912567 466.890808,125.376480 
	C456.269684,111.743965 462.322571,88.870461 480.191772,84.915314 
z"/>
<path fill="#0E1E31" opacity="1.000000" stroke="none" 
	d="
M177.786575,110.008202 
	C177.690475,105.965729 177.594391,101.923248 178.002686,97.401581 
	C179.002884,95.333176 179.921753,93.746178 179.930069,92.154419 
	C180.030075,72.998833 180.129807,53.840965 179.905289,34.687492 
	C179.845993,29.628431 182.398788,29.096874 186.408920,28.905012 
	C190.886917,28.690767 192.170135,30.467413 192.083038,34.747875 
	C191.856049,45.903774 192.006409,57.067352 192.006348,68.227867 
	C192.006256,84.885353 192.051331,101.543152 191.932175,118.199791 
	C191.921005,119.760612 191.290771,122.243820 190.237579,122.716728 
	C184.351913,125.359566 180.183609,122.233597 179.895294,115.724335 
	C179.809692,113.791618 178.522934,111.912102 177.786575,110.008202 
z"/>
<path fill="#A7ABB0" opacity="1.000000" stroke="none" 
	d="
M345.875458,119.556274 
	C351.571503,121.331352 357.111786,124.074074 362.972900,125.429176 
	C372.973663,127.741364 383.024200,127.098312 393.008118,124.286697 
	C412.426208,118.818291 425.653534,99.171539 426.944489,81.146530 
	C427.735901,70.096443 425.866974,59.651638 420.925751,49.391079 
	C422.790619,50.776768 425.054779,52.255642 426.359863,54.336124 
	C439.993988,76.070984 436.305634,109.172699 412.947632,124.980225 
	C394.695862,137.332092 375.480377,136.713821 356.102814,128.303101 
	C352.207855,126.612503 349.252563,122.757042 345.875458,119.556274 
z"/>
<path fill="#A7ABB0" opacity="1.000000" stroke="none" 
	d="
M244.127258,101.487038 
	C238.446320,97.389389 236.340302,90.913681 234.655563,84.376808 
	C230.655930,68.857910 238.152786,47.294212 254.984436,41.891090 
	C265.996582,38.356087 276.656403,38.983528 286.903564,44.430527 
	C289.672546,45.902412 292.235657,47.761559 294.082275,48.929863 
	C297.275696,46.197441 300.278168,43.628399 303.620117,41.028572 
	C306.506622,42.526260 309.053680,44.054737 311.921539,45.775738 
	C307.752106,49.924805 304.394592,53.265888 300.735565,56.907032 
	C294.351013,51.120392 286.566498,48.666325 277.902527,47.520374 
	C260.839844,45.263569 243.582977,57.832726 240.825836,74.863312 
	C239.338715,84.049118 240.444580,92.689545 244.127258,101.487038 
z"/>
<path fill="#A6AAAF" opacity="1.000000" stroke="none" 
	d="
M139.858643,125.717850 
	C142.663910,125.132545 145.465164,124.975616 149.179657,124.767532 
	C149.179657,94.715775 149.179657,64.738586 149.288010,34.292168 
	C151.679382,33.965839 153.962387,34.108738 156.785049,34.285416 
	C156.785049,36.566467 156.784912,38.520916 156.785065,40.475361 
	C156.787308,69.409340 156.697021,98.343941 156.889267,127.276649 
	C156.918945,131.741394 155.552155,133.261093 151.198700,132.867706 
	C147.763153,132.557281 144.277145,132.805313 140.344360,132.805313 
	C140.161148,130.314285 140.007874,128.230255 139.858643,125.717850 
z"/>
<path fill="#AAADB2" opacity="1.000000" stroke="none" 
	d="
M237.985260,119.348740 
	C256.126373,128.866409 274.680695,129.348801 293.487274,121.247414 
	C296.793579,119.823128 299.910370,117.715172 302.682343,115.404335 
	C303.933838,114.361015 304.666992,112.057846 304.706665,110.305252 
	C304.921051,100.828003 304.844604,91.344162 304.987427,81.402832 
	C312.890869,80.754166 312.058594,79.592209 311.503479,91.642593 
	C311.331909,92.746689 311.498627,93.348412 311.665314,93.950134 
	C311.727600,98.343582 311.789917,102.737030 311.512756,107.636635 
	C311.340088,108.745430 311.506897,109.348068 311.673706,109.950699 
	C312.715485,121.706306 312.031250,122.759415 301.019043,128.045288 
	C283.008209,136.690491 264.988770,136.484604 247.211975,127.704643 
	C243.675842,125.958145 241.027618,122.413864 237.985260,119.348740 
z"/>
<path fill="#ABAEB3" opacity="1.000000" stroke="none" 
	d="
M194.183472,33.911392 
	C196.165695,33.911392 198.147919,33.911392 200.609650,33.911392 
	C200.609650,66.935692 200.609650,99.576263 200.609650,132.770920 
	C195.837357,132.770920 191.218628,133.080109 186.662033,132.680664 
	C182.427292,132.309418 184.616669,128.564285 183.953644,125.707092 
	C183.918060,125.114342 183.979736,124.862556 184.434082,124.931870 
	C187.802353,125.001175 190.716248,125.001175 193.967621,125.001175 
	C193.967621,122.085526 193.962906,119.943413 193.968338,117.801331 
	C194.039215,89.838020 194.111511,61.874706 194.183472,33.911392 
z"/>
<path fill="#A8ABB0" opacity="1.000000" stroke="none" 
	d="
M92.906960,114.707321 
	C97.997009,115.097672 100.691864,112.491135 103.166473,108.122467 
	C110.511482,95.155579 118.433372,82.516655 126.013832,69.681068 
	C127.790802,66.672195 129.110382,63.393196 130.640396,60.238480 
	C131.177643,60.342987 131.714890,60.447498 132.252136,60.552010 
	C132.252136,66.396049 132.252136,72.240097 132.130035,78.539276 
	C131.020355,79.983009 129.757523,80.814125 129.087799,81.984596 
	C122.501762,93.494865 116.087181,105.103485 109.473267,116.597481 
	C105.084412,124.224648 98.638275,124.222618 93.984337,116.759346 
	C93.632668,116.195404 93.307800,115.614761 92.906960,114.707321 
z"/>
<path fill="#A7ACB1" opacity="1.000000" stroke="none" 
	d="
M56.829845,122.008804 
	C56.829845,101.585144 56.829845,81.161484 56.829845,60.737820 
	C57.190430,60.606827 57.551010,60.475834 57.911594,60.344845 
	C60.237984,64.001404 62.564373,67.657959 64.945290,71.657356 
	C64.687172,73.714554 64.109703,75.427872 64.102898,77.143448 
	C64.035812,94.059647 63.941055,110.977753 64.154419,127.891541 
	C64.204765,131.882050 63.001804,133.220947 59.084927,132.874008 
	C55.655949,132.570267 52.178772,132.810608 48.121193,132.810608 
	C48.004910,130.331848 47.907768,128.261124 48.292469,125.647324 
	C50.692551,125.072083 52.699814,125.366203 54.493313,124.876862 
	C55.460960,124.612846 56.062908,123.008461 56.829845,122.008804 
z"/>
<path fill="#192331" opacity="1.000000" stroke="none" 
	d="
M194.101654,33.600338 
	C194.111511,61.874706 194.039215,89.838020 193.968338,117.801331 
	C193.962906,119.943413 193.967621,122.085526 193.967621,125.001175 
	C190.716248,125.001175 187.802353,125.001175 184.107544,124.727417 
	C181.464508,124.359993 179.602386,124.266342 177.740250,124.172691 
	C177.658737,119.733818 177.577225,115.294945 177.641144,110.432137 
	C178.522934,111.912102 179.809692,113.791618 179.895294,115.724335 
	C180.183609,122.233597 184.351913,125.359566 190.237579,122.716728 
	C191.290771,122.243820 191.921005,119.760612 191.932175,118.199791 
	C192.051331,101.543152 192.006256,84.885353 192.006348,68.227867 
	C192.006409,57.067352 191.856049,45.903774 192.083038,34.747875 
	C192.170135,30.467413 190.886917,28.690767 186.408920,28.905012 
	C182.398788,29.096874 179.845993,29.628431 179.905289,34.687492 
	C180.129807,53.840965 180.030075,72.998833 179.930069,92.154419 
	C179.921753,93.746178 179.002884,95.333176 178.145447,96.979874 
	C177.659210,82.733040 177.506271,68.428886 177.420258,54.124336 
	C177.365494,45.015816 177.410004,35.906700 177.410004,26.525040 
	C183.060715,26.525040 188.154785,26.525040 194.019836,26.525040 
	C194.019836,28.797480 194.019836,31.043383 194.101654,33.600338 
z"/>
<path fill="#E1A960" opacity="1.000000" stroke="none" 
	d="
M511.035034,64.800850 
	C509.398621,68.765472 508.466248,72.905663 506.000824,75.686958 
	C502.481964,79.656738 496.938568,78.867775 493.302277,74.908081 
	C488.003540,69.138069 489.381866,57.773239 495.943909,53.126411 
	C501.922607,48.892696 509.105469,51.899773 510.746063,59.409866 
	C511.095459,61.009220 510.964203,62.713566 511.035034,64.800850 
z"/>
<path fill="#50B6AE" opacity="1.000000" stroke="none" 
	d="
M481.095459,72.840347 
	C478.799225,76.827492 475.800110,78.713272 471.448547,78.065880 
	C467.190277,77.432358 465.464325,74.308846 464.157715,70.772438 
	C462.300049,65.744484 462.052521,60.754040 464.631989,55.857208 
	C467.685059,50.061176 474.234833,49.318577 478.442108,54.447132 
	C482.877899,59.854259 484.364624,65.846916 481.095459,72.840347 
z"/>
<path fill="#54B5AF" opacity="1.000000" stroke="none" 
	d="
M443.157471,83.618561 
	C442.815948,78.702003 443.820099,74.786316 448.590454,73.161674 
	C452.486938,71.834656 457.373322,74.172127 459.889648,78.577667 
	C460.931061,80.400963 461.660675,82.559547 461.915955,84.641212 
	C462.413269,88.696335 461.425873,92.444527 457.316193,94.252037 
	C453.044098,96.131004 449.372192,94.493332 446.737640,91.048302 
	C445.172546,89.001709 444.353668,86.384430 443.157471,83.618561 
z"/>
<path fill="#E0AA63" opacity="1.000000" stroke="none" 
	d="
M520.565552,73.138367 
	C526.523926,72.960274 529.148804,75.193779 529.847900,80.615517 
	C530.487366,85.574661 527.364563,91.572571 522.903687,93.953117 
	C518.087219,96.523422 512.950012,93.978958 512.028809,88.566795 
	C510.893707,81.898048 513.508789,76.981682 520.565552,73.138367 
z"/>
<path fill="#141E29" opacity="1.000000" stroke="none" 
	d="
M56.429653,122.071465 
	C56.062908,123.008461 55.460960,124.612846 54.493313,124.876862 
	C52.699814,125.366203 50.692551,125.072083 48.332130,125.220901 
	C45.445675,125.143845 43.001400,124.950104 40.346718,124.739685 
	C40.346718,91.931198 40.346718,59.375870 40.346718,26.575083 
	C48.242302,26.129969 56.352760,24.053780 60.330647,34.515320 
	C61.662399,37.043533 62.715008,39.020977 63.767616,40.998417 
	C61.859200,39.178585 59.237537,37.697422 58.181309,35.472950 
	C55.440266,29.700193 50.490311,28.555294 45.104996,28.571953 
	C44.066959,28.575165 42.168491,31.455458 42.141064,33.034126 
	C41.904205,46.666824 42.005241,60.305397 42.005302,73.942215 
	C42.005371,88.244240 42.178486,102.549545 41.908527,116.846474 
	C41.817310,121.677383 43.385506,123.660858 48.180504,123.010017 
	C50.788403,122.656036 53.412609,122.422173 56.429653,122.071465 
z"/>
<path fill="#A4AAB0" opacity="1.000000" stroke="none" 
	d="
M64.025589,41.237995 
	C62.715008,39.020977 61.662399,37.043533 60.601334,34.723320 
	C61.987766,35.129215 63.969624,35.518185 64.683983,36.683887 
	C70.030647,45.408676 75.079575,54.315102 80.315010,63.109116 
	C85.468376,71.765282 90.731339,80.356209 96.054428,89.354034 
	C95.825562,90.414360 95.488503,91.096413 94.614204,92.865570 
	C84.193306,75.209846 74.238434,58.343712 64.025589,41.237995 
z"/>
<path fill="#893645" opacity="1.000000" stroke="none" 
	d="
M37.219608,165.723022 
	C40.280128,167.048965 42.908848,169.321594 45.837330,169.815002 
	C59.867970,172.178909 73.791138,170.649475 87.672081,167.962372 
	C97.510391,166.057846 107.465752,164.764496 117.323456,162.951492 
	C124.284454,161.671219 131.159698,159.930191 138.096405,158.507874 
	C139.493103,158.221512 140.994125,158.443939 142.717667,158.706451 
	C113.663406,164.429962 84.804550,173.123642 54.550426,172.114197 
	C48.973003,171.928116 43.418556,170.603271 37.890118,169.601883 
	C35.373383,169.146027 34.116783,167.902969 37.219608,165.723022 
z"/>
<path fill="#7E2134" opacity="1.000000" stroke="none" 
	d="
M196.456818,152.641968 
	C199.562561,151.724457 203.060272,150.326996 206.627731,150.117615 
	C217.232193,149.495239 227.865082,149.056137 238.484985,149.092880 
	C246.913895,149.122040 255.340027,149.957413 264.210968,150.459961 
	C263.145752,150.800858 262.346252,151.056702 261.306702,151.518631 
	C254.120270,151.539230 247.171082,151.129852 240.228149,151.217361 
	C227.829437,151.373596 215.434509,151.829697 202.345459,152.052963 
	C201.184982,152.016113 200.717041,152.086716 200.249100,152.157333 
	C199.126282,152.339920 198.003479,152.522491 196.456818,152.641968 
z"/>
<path fill="#893645" opacity="1.000000" stroke="none" 
	d="
M187.008270,143.500183 
	C178.907471,144.571838 170.548660,145.291519 162.187729,145.985535 
	C153.990219,146.665970 145.793289,147.358032 137.589493,147.953934 
	C135.964371,148.071960 134.309219,147.776581 132.350067,147.416183 
	C150.271271,145.819336 168.510284,144.478149 187.008270,143.500183 
z"/>
<path fill="#A1A4AB" opacity="1.000000" stroke="none" 
	d="
M277.117523,87.129692 
	C280.839905,86.684494 284.685150,86.684494 289.005035,86.684494 
	C289.005035,89.065498 289.005035,91.147247 288.904053,93.669632 
	C285.189423,94.110275 281.575806,94.110275 277.625244,94.110275 
	C277.469696,91.468575 277.355042,89.521729 277.117523,87.129692 
z"/>
<path fill="#893645" opacity="1.000000" stroke="none" 
	d="
M76.597290,150.925110 
	C73.421501,151.327271 69.798599,152.163208 66.330734,151.737137 
	C59.216038,150.863022 52.210129,149.121292 45.101734,148.166199 
	C43.168423,147.906448 41.029293,149.178558 38.879784,150.173233 
	C37.372757,148.678604 35.970577,146.758347 34.889511,145.277863 
	C48.825695,147.135681 62.523026,148.961670 76.597290,150.925110 
z"/>
<path fill="#893645" opacity="1.000000" stroke="none" 
	d="
M160.402039,156.619843 
	C163.950363,155.568207 167.856705,154.114471 171.876495,153.656448 
	C178.657242,152.883865 185.509903,152.742432 192.651154,152.590240 
	C182.250336,154.118423 171.530716,155.391937 160.402039,156.619843 
z"/>
<path fill="#893645" opacity="1.000000" stroke="none" 
	d="
M110.578339,149.266846 
	C107.672806,150.206619 104.368820,151.638367 100.996826,151.822128 
	C94.899040,152.154388 88.760651,151.741592 82.328766,151.366638 
	C91.395287,150.460999 100.772255,149.828629 110.578339,149.266846 
z"/>
<path fill="#792837" opacity="1.000000" stroke="none" 
	d="
M261.514404,142.068817 
	C261.385406,142.431229 260.797028,142.929474 260.210236,142.927628 
	C243.370209,142.874786 226.530334,142.771774 209.370972,142.420670 
	C226.386292,142.100174 243.721054,142.035873 261.514404,142.068817 
z"/>
<path fill="#0F1824" opacity="1.000000" stroke="none" 
	d="
M148.983734,31.570318 
	C148.378372,31.954096 147.583801,32.098873 147.432297,31.850845 
	C143.466217,25.358158 138.270950,28.314331 132.814301,29.961586 
	C133.122086,27.158562 134.832962,26.045143 137.829208,26.259661 
	C141.410095,26.516039 145.023361,26.320135 149.094177,26.320135 
	C149.094177,28.266125 149.094177,29.707201 148.983734,31.570318 
z"/>
<path fill="#893645" opacity="1.000000" stroke="none" 
	d="
M128.592789,147.511597 
	C124.680794,151.522476 119.545822,149.756287 114.337173,149.396805 
	C118.743782,148.561707 123.462204,147.988037 128.592789,147.511597 
z"/>
<path fill="#A1A4AB" opacity="1.000000" stroke="none" 
	d="
M270.519897,72.991714 
	C270.770050,77.051422 270.627991,81.165695 270.484344,85.759972 
	C270.364380,81.842079 270.246033,77.444183 270.519897,72.991714 
z"/>
<path fill="#893645" opacity="1.000000" stroke="none" 
	d="
M145.414154,158.829208 
	C148.466064,157.996933 151.933350,157.188751 155.682892,156.646301 
	C152.586609,157.559128 149.208084,158.206207 145.414154,158.829208 
z"/>
<path fill="#893645" opacity="1.000000" stroke="none" 
	d="
M45.557449,158.902496 
	C43.360119,161.104752 40.843822,163.430984 37.961433,165.644745 
	C40.143051,163.363663 42.690769,161.195084 45.557449,158.902496 
z"/>
<path fill="#893645" opacity="1.000000" stroke="none" 
	d="
M40.028809,152.342773 
	C41.599285,153.481277 43.259102,154.940948 44.934666,156.752426 
	C43.339653,155.624146 41.728901,154.144058 40.028809,152.342773 
z"/>
<path fill="#565B69" opacity="1.000000" stroke="none" 
	d="
M177.853073,124.516563 
	C179.602386,124.266342 181.464508,124.359993 183.653198,124.658104 
	C183.979736,124.862556 183.918060,125.114342 183.911560,125.243774 
	C181.925339,125.202286 179.945618,125.031364 177.853073,124.516563 
z"/>
<path fill="#A1A4AB" opacity="1.000000" stroke="none" 
	d="
M311.749725,109.636932 
	C311.506897,109.348068 311.340088,108.745430 311.421967,108.096748 
	C311.722321,108.474861 311.774017,108.899017 311.749725,109.636932 
z"/>
<path fill="#A1A4AB" opacity="1.000000" stroke="none" 
	d="
M311.741486,93.636566 
	C311.498627,93.348412 311.331909,92.746689 311.412537,92.098373 
	C311.712463,92.475525 311.765045,92.899269 311.741486,93.636566 
z"/>
<path fill="#893645" opacity="1.000000" stroke="none" 
	d="
M200.473236,152.272705 
	C200.717041,152.086716 201.184982,152.016113 201.887115,152.002686 
	C201.646667,152.169281 201.172028,152.278687 200.473236,152.272705 
z"/>
<path fill="#F6F7F3" opacity="1.000000" stroke="none" 
	d="
M401.868439,52.087311 
	C406.785187,57.029385 409.382721,62.933456 409.224182,69.957191 
	C409.093323,75.754204 410.110352,81.891411 408.563263,87.288712 
	C401.181671,113.040977 371.158539,116.442650 355.046753,105.081154 
	C353.893372,104.267838 353.195496,102.808601 352.208801,100.960495 
	C351.589752,98.533272 351.041107,96.797310 350.506897,95.056908 
	C346.892365,83.280853 348.678101,71.912956 354.283356,61.361374 
	C359.747925,51.074665 375.239807,44.891102 387.204468,47.581055 
	C392.178741,48.699390 396.985504,50.562740 401.868439,52.087311 
z"/>
<path fill="#A7ABB0" opacity="1.000000" stroke="none" 
	d="
M401.818176,51.752289 
	C396.985504,50.562740 392.178741,48.699390 387.204468,47.581055 
	C375.239807,44.891102 359.747925,51.074665 354.283356,61.361374 
	C348.678101,71.912956 346.892365,83.280853 350.506897,95.056908 
	C351.041107,96.797310 351.589752,98.533272 352.041687,100.664314 
	C343.301117,94.257736 341.123779,84.696442 341.261230,74.502777 
	C341.458221,59.895390 350.668427,46.247913 362.634064,41.902702 
	C376.714874,36.789391 391.604187,40.409401 401.818176,51.752289 
z"/>
</svg>